<mxfile host="Electron" agent="Mozilla/5.0 (Macintosh; Intel Mac OS X 10_15_7) AppleWebKit/537.36 (KHTML, like Gecko) draw.io/24.7.17 Chrome/128.0.6613.36 Electron/32.0.1 Safari/537.36" version="24.7.17" pages="2">
  <diagram name="Overview" id="yxIyVzuXhHhUcTsLyrsX">
    <mxGraphModel dx="2687" dy="826" grid="1" gridSize="5" guides="1" tooltips="1" connect="1" arrows="0" fold="1" page="1" pageScale="1" pageWidth="1654" pageHeight="1169" math="0" shadow="0">
      <root>
        <mxCell id="xAL0oVeXehvFhAx98EFK-0" />
        <mxCell id="xAL0oVeXehvFhAx98EFK-1" parent="xAL0oVeXehvFhAx98EFK-0" />
        <mxCell id="xAL0oVeXehvFhAx98EFK-7" value="Diagram" parent="xAL0oVeXehvFhAx98EFK-0" />
        <mxCell id="xAL0oVeXehvFhAx98EFK-13" value="" style="rounded=0;whiteSpace=wrap;html=1;fontFamily=IBM Plex Sans;fontSource=fonts%2FIBMPlexSans-Regular.woff;fontSize=12;spacingBottom=-28;spacingTop=0;labelPosition=-100;verticalLabelPosition=top;align=center;verticalAlign=bottom;spacingLeft=9;spacing=0;expand=0;recursiveResize=0;spacingRight=0;container=0;collapsible=0;strokeColor=#1192E8;fillColor=none;dropTarget=0;" parent="xAL0oVeXehvFhAx98EFK-7" vertex="1">
          <mxGeometry x="-1640" y="20" width="685" height="450" as="geometry">
            <mxRectangle width="670" as="alternateBounds" />
          </mxGeometry>
        </mxCell>
        <mxCell id="xAL0oVeXehvFhAx98EFK-14" value="" style="rounded=0;whiteSpace=wrap;html=1;strokeColor=none;fillColor=#1192E8;fontSize=12;" parent="xAL0oVeXehvFhAx98EFK-13" vertex="1">
          <mxGeometry width="7" height="37" as="geometry" />
        </mxCell>
        <mxCell id="xAL0oVeXehvFhAx98EFK-15" value="IBM Cloud" style="text;html=1;strokeColor=none;fillColor=none;align=left;verticalAlign=middle;whiteSpace=wrap;rounded=0;fontFamily=IBM Plex Sans;fontSource=fonts%2FIBMPlexSans-Regular.woff;fontSize=12;" parent="xAL0oVeXehvFhAx98EFK-13" vertex="1">
          <mxGeometry x="51" y="8" width="163" height="20" as="geometry" />
        </mxCell>
        <mxCell id="xAL0oVeXehvFhAx98EFK-16" value="" style="shape=image;aspect=fixed;image=data:image/svg+xml,PD94bWwgdmVyc2lvbj0iMS4wIiBlbmNvZGluZz0iVVRGLTgiPz4KPHN2ZyB3aWR0aD0iMzNweCIgaGVpZ2h0PSIzMXB4IiB2aWV3Qm94PSIwIDAgMzMgMzEiIHZlcnNpb249IjEuMSIgeG1sbnM9Imh0dHA6Ly93d3cudzMub3JnLzIwMDAvc3ZnIiB4bWxuczp4bGluaz0iaHR0cDovL3d3dy53My5vcmcvMTk5OS94bGluayI+CiAgICA8IS0tIEdlbmVyYXRvcjogU2tldGNoIDUzICg3MjUyMCkgLSBodHRwczovL3NrZXRjaGFwcC5jb20gLS0+CiAgICA8dGl0bGU+SUJNIENsb3VkIEJsYWNrPC90aXRsZT4KICAgIDxkZXNjPkNyZWF0ZWQgd2l0aCBTa2V0Y2guPC9kZXNjPgogICAgPGcgaWQ9IlBhZ2UtMSIgc3Ryb2tlPSJub25lIiBzdHJva2Utd2lkdGg9IjEiIGZpbGw9Im5vbmUiIGZpbGwtcnVsZT0iZXZlbm9kZCI+CiAgICAgICAgPGcgaWQ9IklCTS1DbG91ZC1CbGFjayIgdHJhbnNmb3JtPSJ0cmFuc2xhdGUoMC43ODQ3MjIsIDAuNTAwMTI1KSIgZmlsbD0iIzAwMDAwMCI+CiAgICAgICAgICAgIDxwYXRoIGQ9Ik0yNy4xMDIxLDI3LjAxMDYgQzI1Ljg3MDEsMjcuODc5NiAyNC4zNjExLDI4LjI2NzYgMjIuODUzMSwyOC4yNjc2IEw3LjAwNDEsMjguMjY3NiBDNC4xMTIxLDI4LjI3NDYgMS43NjIxLDI1LjkzNDYgMS43NTUxLDIzLjA0MjYgQzEuNzQ5MSwyMC40MTA2IDMuNjk3MSwxOC4xODM2IDYuMzA1MSwxNy44Mzg2IEM2LjQxMTEsMTkuMTYxNiA2Ljc4NzEsMjAuNDQ5NiA3LjQwOTEsMjEuNjIxNiBDNy41OTUxLDIxLjk5MTYgOC4wNDYxLDIyLjE0MDYgOC40MTYxLDIxLjk1NDYgQzguNzg2MSwyMS43Njc2IDguOTM1MSwyMS4zMTc2IDguNzQ4MSwyMC45NDc2IEw4LjczMDEsMjAuOTEyNiBDNy4xMzIxLDE3LjkzNTYgNy40MjkxLDE0LjIxNzYgOS42NzIxLDExLjY4OTYgQzEzLjQ4NjEsNy4zOTI2IDE5Ljc4NzEsOC4wNTI2IDIyLjc1NzEsMTIuMjgxNiBDMjAuMzM0MSwxMi4zNDc2IDE4LjA0NzEsMTMuNDE1NiAxNi40NDExLDE1LjIzMDYgQzE2LjE2MTEsMTUuNTM1NiAxNi4xODExLDE2LjAxMDYgMTYuNDg1MSwxNi4yOTA2IEMxNi43ODkxLDE2LjU3MTYgMTcuMjY0MSwxNi41NTI2IDE3LjU0NTEsMTYuMjQ3NiBMMTcuNTY2MSwxNi4yMjI2IEMxOS41OTUxLDEzLjkyMzYgMjIuODg0MSwxMy4wNTI2IDI1LjcwMzEsMTQuMjYzNiBDMzEuMTY1MSwxNi42MDk2IDMxLjgxMDEsMjMuNjkyNiAyNy4xMDIxLDI3LjAxMDYgTTI0LjU4NTEsMTIuOTE3NiBDMjIuMDU0MSw4LjE3NTYgMTYuMTU5MSw2LjM4MjYgMTEuNDE2MSw4LjkxMzYgQzguNDY1MSwxMC40ODg2IDYuNTI5MSwxMy40Njg2IDYuMjkwMSwxNi44MDY2IEMyLjU4NDEsMTcuMjA0NiAtMC4wOTc5LDIwLjUzMjYgMC4zMDExLDI0LjIzOTYgQzAuNjY5MSwyNy42NjU2IDMuNTU5MSwzMC4yNjM2IDcuMDA0MSwzMC4yNjc2IEwyMy4wMDQxLDMwLjI2NzYgQzI3LjgzNTEsMzAuMjcwNiAzMS43NTMxLDI2LjM1NzYgMzEuNzU2MSwyMS41MjY2IEMzMS43NTkxLDE3LjMwMTYgMjguNzQxMSwxMy42Nzg2IDI0LjU4NTEsMTIuOTE3NiIgaWQ9IkZpbGwtMSI+PC9wYXRoPgogICAgICAgICAgICA8ZyBpZD0iR3JvdXAtNSIgdHJhbnNmb3JtPSJ0cmFuc2xhdGUoMjcuMDAwMDAwLCA4LjI2NzcwMCkiPgogICAgICAgICAgICAgICAgPHBhdGggZD0iTTQuOTAyOCwwLjkxOTcgQzQuNjkzOCwwLjU1NjcgNC4yMjk4LDAuNDMyNyAzLjg2NjgsMC42NDE3IEMzLjg2NjgsMC42NDE3IDMuODY2OCwwLjY0MTcgMy44NjY4LDAuNjQyNyBMMC44NDY4LDIuMzg1NyBDMC40Nzg4LDIuNTg2NyAwLjM0MzgsMy4wNDc3IDAuNTQ0OCwzLjQxNTcgQzAuNzQ1OCwzLjc4MzcgMS4yMDY4LDMuOTE4NyAxLjU3NDgsMy43MTc3IEMxLjU4NDgsMy43MTE3IDEuNTk0OCwzLjcwNTcgMS42MDQ4LDMuNjk5NyBMNC42MjQ4LDEuOTU2NyBDNC45ODc4LDEuNzQ2NyA1LjExMTgsMS4yODI3IDQuOTAyOCwwLjkxOTciIGlkPSJGaWxsLTMiPjwvcGF0aD4KICAgICAgICAgICAgPC9nPgogICAgICAgICAgICA8cGF0aCBkPSJNMjIuNjgxMiw2LjgwMjYgQzIzLjA0MzIsNy4wMTI2IDIzLjUwNzIsNi44ODg2IDIzLjcxNzIsNi41MjU2IEwyMy43MTcyLDYuNTI1NiBMMjUuNDYxMiwzLjUwNTYgQzI1LjY2ODIsMy4xNDA2IDI1LjU0MDIsMi42Nzc2IDI1LjE3NjIsMi40NzA2IEMyNC44MTUyLDIuMjY2NiAyNC4zNTcyLDIuMzg4NiAyNC4xNDcyLDIuNzQ2NiBMMjIuNDAzMiw1Ljc2NjYgQzIyLjE5NDIsNi4xMjk2IDIyLjMxODIsNi41OTM2IDIyLjY4MTIsNi44MDI2IiBpZD0iRmlsbC02Ij48L3BhdGg+CiAgICAgICAgICAgIDxwYXRoIGQ9Ik0xNi4wMDQ0LDUuMDE0MSBDMTYuNDIzNCw1LjAxNDEgMTYuNzYzNCw0LjY3NDEgMTcuMzM1NCw0LjI1NTEgTDE3LjMzNTQsMC43NjcxIEMxNi43Njg0LDAuMzQ4MSAxNi40MzI0LDAuMDA1MSAxNi4wMTM0LDAuMDAwMSBDMTUuNTk0NCwtMC4wMDQ5IDE1LjI1MTQsMC4zMzExIDE1LjMzNTQsMC43NTAxIEwxNS4zMzU0LDAuNzY3MSBMMTUuMzM1NCw0LjI1NTEgQzE1LjI0NjQsNC42NzQxIDE1LjU4NTQsNS4wMTQxIDE2LjAwNDQsNS4wMTQxIiBpZD0iRmlsbC04Ij48L3BhdGg+CiAgICAgICAgICAgIDxwYXRoIGQ9Ik04LjI5Miw2LjUyNDggQzguNTA0LDYuODg1OCA4Ljk2OSw3LjAwNjggOS4zMzEsNi43OTQ4IEM5LjY4OCw2LjU4NDggOS44MTEsNi4xMjY4IDkuNjA2LDUuNzY1OCBMNy44NjIsMi43NDU4IEM3LjY1NSwyLjM4MTggNy4xOTIsMi4yNTM4IDYuODI4LDIuNDYwOCBDNi40NjMsMi42Njc4IDYuMzM1LDMuMTMwOCA2LjU0MiwzLjQ5NDggQzYuNTQ0LDMuNDk4OCA2LjU0NiwzLjUwMTggNi41NDgsMy41MDQ4IEw4LjI5Miw2LjUyNDggWiIgaWQ9IkZpbGwtMTAiPjwvcGF0aD4KICAgICAgICAgICAgPGcgaWQ9Ikdyb3VwLTE0IiB0cmFuc2Zvcm09InRyYW5zbGF0ZSgwLjAwMDAwMCwgOC4yNjc3MDApIj4KICAgICAgICAgICAgICAgIDxwYXRoIGQ9Ik00LjE2MzEsMi4zODYgTDEuMTQzMSwwLjY0MiBDMC43ODIxLDAuNDMgMC4zMTcxLDAuNTUxIDAuMTA0MSwwLjkxMiBDLTAuMTA3OSwxLjI3MyAwLjAxMzEsMS43MzkgMC4zNzQxLDEuOTUgQzAuMzc4MSwxLjk1MiAwLjM4MTEsMS45NTQgMC4zODQxLDEuOTU2IEwzLjQwNTEsMy43IEMzLjc2NjEsMy45MTIgNC4yMzExLDMuNzkxIDQuNDQzMSwzLjQzIEM0LjY1NTEsMy4wNjkgNC41MzUxLDIuNjA0IDQuMTczMSwyLjM5MiBDNC4xNzAxLDIuMzkgNC4xNjYxLDIuMzg4IDQuMTYzMSwyLjM4NiBaIiBpZD0iRmlsbC0xMiI+PC9wYXRoPgogICAgICAgICAgICA8L2c+CiAgICAgICAgPC9nPgogICAgPC9nPgo8L3N2Zz4=;fontSize=12;" parent="xAL0oVeXehvFhAx98EFK-13" vertex="1">
          <mxGeometry x="20" y="7" width="21" height="19.73" as="geometry" />
        </mxCell>
        <mxCell id="xAL0oVeXehvFhAx98EFK-21" value="" style="rounded=0;whiteSpace=wrap;html=1;fontFamily=IBM Plex Sans;fontSource=fonts%2FIBMPlexSans-Regular.woff;fontSize=12;spacingBottom=-28;spacingTop=0;labelPosition=-100;verticalLabelPosition=top;align=center;verticalAlign=bottom;spacingLeft=9;spacing=0;expand=0;recursiveResize=0;spacingRight=0;container=0;collapsible=0;strokeColor=#1192E8;fillColor=none;dropTarget=0;" parent="xAL0oVeXehvFhAx98EFK-7" vertex="1">
          <mxGeometry x="-1630" y="68.25" width="660" height="206.75" as="geometry">
            <mxRectangle width="670" as="alternateBounds" />
          </mxGeometry>
        </mxCell>
        <mxCell id="xAL0oVeXehvFhAx98EFK-22" value="" style="rounded=0;whiteSpace=wrap;html=1;strokeColor=none;fillColor=#1192E8;fontSize=12;" parent="xAL0oVeXehvFhAx98EFK-21" vertex="1">
          <mxGeometry width="7" height="37" as="geometry" />
        </mxCell>
        <mxCell id="xAL0oVeXehvFhAx98EFK-23" value="VMware as a Service - Site" style="text;html=1;strokeColor=none;fillColor=none;align=left;verticalAlign=middle;whiteSpace=wrap;rounded=0;fontFamily=IBM Plex Sans;fontSource=fonts%2FIBMPlexSans-Regular.woff;fontSize=12;" parent="xAL0oVeXehvFhAx98EFK-21" vertex="1">
          <mxGeometry x="51" y="8" width="299" height="20" as="geometry" />
        </mxCell>
        <mxCell id="xAL0oVeXehvFhAx98EFK-24" value="" style="shape=image;aspect=fixed;image=data:image/svg+xml,PD94bWwgdmVyc2lvbj0iMS4wIiBlbmNvZGluZz0iVVRGLTgiPz4KPHN2ZyB3aWR0aD0iMjlweCIgaGVpZ2h0PSIyOHB4IiB2aWV3Qm94PSIwIDAgMjkgMjgiIHZlcnNpb249IjEuMSIgeG1sbnM9Imh0dHA6Ly93d3cudzMub3JnLzIwMDAvc3ZnIiB4bWxuczp4bGluaz0iaHR0cDovL3d3dy53My5vcmcvMTk5OS94bGluayI+CiAgICA8IS0tIEdlbmVyYXRvcjogU2tldGNoIDUzICg3MjUyMCkgLSBodHRwczovL3NrZXRjaGFwcC5jb20gLS0+CiAgICA8dGl0bGU+SUJNIFZQQyBCbGFjazwvdGl0bGU+CiAgICA8ZGVzYz5DcmVhdGVkIHdpdGggU2tldGNoLjwvZGVzYz4KICAgIDxnIGlkPSJQYWdlLTEiIHN0cm9rZT0ibm9uZSIgc3Ryb2tlLXdpZHRoPSIxIiBmaWxsPSJub25lIiBmaWxsLXJ1bGU9ImV2ZW5vZGQiPgogICAgICAgIDxnIGlkPSJJQk0tVlBDLUJsYWNrIiB0cmFuc2Zvcm09InRyYW5zbGF0ZSgwLjc1MDAwMCwgLTEuMDAwMDAwKSIgZmlsbD0iIzAwMDAwMCI+CiAgICAgICAgICAgIDxwYXRoIGQ9Ik0wLjAwMDksMS4wMDAyIEwwLjAwMDksOS4wMDAyIEw2LjU4NjksOS4wMDAyIEwyMC4wMDA5LDIyLjQxNDIgTDIwLjAwMDksMjkuMDAwMiBMMjguMDAwOSwyOS4wMDAyIEwyOC4wMDA5LDIxLjAwMDIgTDIxLjQxNTksMjEuMDAwMiBMOC4wMDA5LDcuNTg1MiBMOC4wMDA5LDEuMDAwMiBMMC4wMDA5LDEuMDAwMiBaIE0yLjAwMDksNy4wMDAyIEw2LjAwMDksNy4wMDAyIEw2LjAwMDksMy4wMDAyIEwyLjAwMDksMy4wMDAyIEwyLjAwMDksNy4wMDAyIFogTTIyLjAwMDksMjcuMDAxMiBMMjYuMDAxOSwyNy4wMDEyIEwyNi4wMDE5LDIzLjAwMDIgTDIyLjAwMDksMjMuMDAwMiBMMjIuMDAwOSwyNy4wMDEyIFoiIGlkPSJGaWxsLTEiPjwvcGF0aD4KICAgICAgICAgICAgPGcgaWQ9Ikdyb3VwLTgiIHRyYW5zZm9ybT0idHJhbnNsYXRlKDAuMDAwMDAwLCAwLjAwMTkwMCkiPgogICAgICAgICAgICAgICAgPGcgaWQ9Ikdyb3VwLTQiIHRyYW5zZm9ybT0idHJhbnNsYXRlKDExLjAwMDAwMCwgMC4wMDAwMDApIj4KICAgICAgICAgICAgICAgICAgICA8cGF0aCBkPSJNMTIuNjQ2Nyw2LjgxNzkgQzExLjU0MjcsNi44MTc5IDEwLjY0NjcsNS45MjI5IDEwLjY0NjcsNC44MTc5IEMxMC42NDY3LDMuNzEzOSAxMS41NDI3LDIuODE3OSAxMi42NDY3LDIuODE3OSBDMTMuNzUwNywyLjgxNzkgMTQuNjQ2NywzLjcxMzkgMTQuNjQ2Nyw0LjgxNzkgQzE0LjY0NTcsNS45MjE5IDEzLjc1MDcsNi44MTY5IDEyLjY0NjcsNi44MTc5IE0xNi43MzM3LDMuNTE4OSBDMTYuMzU2NywyLjQ5ODkgMTUuNTMxNywxLjY2NzkgMTQuNTE1NywxLjI4MDkgQzEyLjEyNzcsMC4zNzA5IDkuNzE3NywxLjc1NTkgOS4xNDI3LDMuOTk3OSBMMC4wMDA3LDMuOTk3OSBMMC4wMDA3LDUuOTk3OSBMOS4xNDI3LDUuOTk3OSBDOS41MDc3LDcuMzk3OSAxMC42MDE3LDguNDkwOSAxMi4wMDA3LDguODU1OSBMMTIuMDAwNywxNy45OTc5IEwxNC4wMDA3LDE3Ljk5NzkgTDE0LjAwMDcsOC44NTU5IEMxNi4yMjk3LDguMjgxOSAxNy42MTE3LDUuODk2OSAxNi43MzM3LDMuNTE4OSIgaWQ9IkZpbGwtMiI+PC9wYXRoPgogICAgICAgICAgICAgICAgPC9nPgogICAgICAgICAgICAgICAgPGcgaWQ9Ikdyb3VwLTciIHRyYW5zZm9ybT0idHJhbnNsYXRlKDAuMDAwMDAwLCAxMS4wMDAwMDApIj4KICAgICAgICAgICAgICAgICAgICA8cGF0aCBkPSJNMy42NDY3LDE1LjgxNzkgQzIuNTQyNywxNS44MTc5IDEuNjQ2NywxNC45MjI5IDEuNjQ2NywxMy44MTc5IEMxLjY0NjcsMTIuNzEzOSAyLjU0MjcsMTEuODE3OSAzLjY0NjcsMTEuODE3OSBDNC43NTA3LDExLjgxNzkgNS42NDY3LDEyLjcxMzkgNS42NDY3LDEzLjgxNzkgQzUuNjQ1NywxNC45MjE5IDQuNzUwNywxNS44MTY5IDMuNjQ2NywxNS44MTc5IEwzLjY0NjcsMTUuODE3OSBaIE0xNy4wMDA3LDEyLjk5NzkgTDcuODU4NywxMi45OTc5IEM3LjQ5MzcsMTEuNTk3OSA2LjQwMDcsMTAuNTA0OSA1LjAwMDcsMTAuMTM5OSBMNS4wMDA3LDAuOTk3OSBMMy4wMDA3LDAuOTk3OSBMMy4wMDA3LDEwLjEzOTkgQzAuNDg3NywxMC43ODQ5IC0wLjg1MTMsMTMuNjgzOSAwLjU5NDcsMTYuMTE5OSBDMS4xNTA3LDE3LjA1NTkgMi4xMTE3LDE3LjcyODkgMy4xODI3LDE3LjkyNjkgQzUuNDAyNywxOC4zMzc5IDcuMzUzNywxNi45Njk5IDcuODU4NywxNC45OTc5IEwxNy4wMDA3LDE0Ljk5NzkgTDE3LjAwMDcsMTIuOTk3OSBaIiBpZD0iRmlsbC01Ij48L3BhdGg+CiAgICAgICAgICAgICAgICA8L2c+CiAgICAgICAgICAgIDwvZz4KICAgICAgICA8L2c+CiAgICA8L2c+Cjwvc3ZnPg==;fontSize=12;" parent="xAL0oVeXehvFhAx98EFK-21" vertex="1">
          <mxGeometry x="20" y="6.849999999999909" width="20" height="19.31" as="geometry" />
        </mxCell>
        <mxCell id="xAL0oVeXehvFhAx98EFK-29" value="" style="rounded=0;whiteSpace=wrap;html=1;fontFamily=IBM Plex Sans;fontSource=fonts%2FIBMPlexSans-Regular.woff;fontSize=12;spacingBottom=-28;spacingTop=0;labelPosition=-100;verticalLabelPosition=top;align=center;verticalAlign=bottom;spacingLeft=9;spacing=0;expand=0;recursiveResize=0;spacingRight=0;container=0;collapsible=0;fillColor=none;strokeColor=#198038;dropTarget=0;connectable=0;allowArrows=0;" parent="xAL0oVeXehvFhAx98EFK-7" vertex="1">
          <mxGeometry x="-1540" y="110" width="555" height="150" as="geometry">
            <mxRectangle width="670" as="alternateBounds" />
          </mxGeometry>
        </mxCell>
        <mxCell id="xAL0oVeXehvFhAx98EFK-30" value="" style="rounded=0;whiteSpace=wrap;html=1;strokeColor=none;fillColor=#198038;fontSize=12;" parent="xAL0oVeXehvFhAx98EFK-29" vertex="1">
          <mxGeometry width="7" height="37" as="geometry" />
        </mxCell>
        <mxCell id="xAL0oVeXehvFhAx98EFK-31" value="Virtual Data Center" style="text;html=1;strokeColor=none;fillColor=none;align=left;verticalAlign=middle;whiteSpace=wrap;rounded=0;fontFamily=IBM Plex Sans;fontSource=fonts%2FIBMPlexSans-Regular.woff;fontSize=12;" parent="xAL0oVeXehvFhAx98EFK-29" vertex="1">
          <mxGeometry x="51" y="8" width="484" height="20" as="geometry" />
        </mxCell>
        <mxCell id="xAL0oVeXehvFhAx98EFK-32" value="" style="shape=image;aspect=fixed;image=data:image/svg+xml,PD94bWwgdmVyc2lvbj0iMS4wIiBlbmNvZGluZz0iVVRGLTgiPz4KPHN2ZyB3aWR0aD0iMjRweCIgaGVpZ2h0PSIyOHB4IiB2aWV3Qm94PSIwIDAgMjQgMjgiIHZlcnNpb249IjEuMSIgeG1sbnM9Imh0dHA6Ly93d3cudzMub3JnLzIwMDAvc3ZnIiB4bWxuczp4bGluaz0iaHR0cDovL3d3dy53My5vcmcvMTk5OS94bGluayI+CiAgICA8IS0tIEdlbmVyYXRvcjogU2tldGNoIDUzICg3MjUyMCkgLSBodHRwczovL3NrZXRjaGFwcC5jb20gLS0+CiAgICA8dGl0bGU+UGh5c2ljYWwgU2VydmVyIEJsYWNrPC90aXRsZT4KICAgIDxkZXNjPkNyZWF0ZWQgd2l0aCBTa2V0Y2guPC9kZXNjPgogICAgPGcgaWQ9IlBhZ2UtMSIgc3Ryb2tlPSJub25lIiBzdHJva2Utd2lkdGg9IjEiIGZpbGw9Im5vbmUiIGZpbGwtcnVsZT0iZXZlbm9kZCI+CiAgICAgICAgPGcgaWQ9IlBoeXNpY2FsLVNlcnZlci1CbGFjayIgZmlsbD0iIzAwMDAwMCI+CiAgICAgICAgICAgIDxwYXRoIGQ9Ik01LjEyMTYsMi42NjUgQzUuNjczNiwyLjY2NSA2LjEyMTYsMy4xMTMgNi4xMjE2LDMuNjY1IEM2LjEyMTYsNC4yMTcgNS42NzM2LDQuNjY1IDUuMTIxNiw0LjY2NSBDNC41Njk2LDQuNjY1IDQuMTIxNiw0LjIxNyA0LjEyMTYsMy42NjUgQzQuMTIxNiwzLjExMyA0LjU2OTYsMi42NjUgNS4xMjE2LDIuNjY1IiBpZD0iRmlsbC0xIj48L3BhdGg+CiAgICAgICAgICAgIDxwYXRoIGQ9Ik0yLDYgTDIyLDYgTDIyLDIgTDIsMiBMMiw2IFogTTIyLDggTDIsOCBDMC44OTYsNy45OTkgMC4wMDEsNy4xMDQgMCw2IEwwLDIgQzAuMDAxLDAuODk2IDAuODk2LDAuMDAxIDIsMCBMMjIsMCBDMjMuMTA0LDAuMDAxIDIzLjk5OSwwLjg5NiAyNCwyIEwyNCw2IEMyMy45OTksNy4xMDQgMjMuMTA0LDcuOTk5IDIyLDggTDIyLDggWiIgaWQ9IkZpbGwtMyI+PC9wYXRoPgogICAgICAgICAgICA8cGF0aCBkPSJNNS4xMjE2LDEyLjY2NSBDNS42NzM2LDEyLjY2NSA2LjEyMTYsMTMuMTEzIDYuMTIxNiwxMy42NjUgQzYuMTIxNiwxNC4yMTcgNS42NzM2LDE0LjY2NSA1LjEyMTYsMTQuNjY1IEM0LjU2OTYsMTQuNjY1IDQuMTIxNiwxNC4yMTcgNC4xMjE2LDEzLjY2NSBDNC4xMjE2LDEzLjExMyA0LjU2OTYsMTIuNjY1IDUuMTIxNiwxMi42NjUiIGlkPSJGaWxsLTUiPjwvcGF0aD4KICAgICAgICAgICAgPHBhdGggZD0iTTIsMTYgTDIyLDE2IEwyMiwxMiBMMiwxMiBMMiwxNiBaIE0yMiwxOCBMMiwxOCBDMC44OTYsMTcuOTk5IDAuMDAxLDE3LjEwNCAwLDE2IEwwLDEyIEMwLjAwMSwxMC44OTYgMC44OTYsMTAuMDAxIDIsMTAgTDIyLDEwIEMyMy4xMDQsMTAuMDAxIDIzLjk5OSwxMC44OTYgMjQsMTIgTDI0LDE2IEMyMy45OTksMTcuMTA0IDIzLjEwNCwxNy45OTkgMjIsMTggTDIyLDE4IFoiIGlkPSJGaWxsLTYiPjwvcGF0aD4KICAgICAgICAgICAgPHBhdGggZD0iTTUuMTIxNiwyMi42NjUgQzUuNjczNiwyMi42NjUgNi4xMjE2LDIzLjExMyA2LjEyMTYsMjMuNjY1IEM2LjEyMTYsMjQuMjE3IDUuNjczNiwyNC42NjUgNS4xMjE2LDI0LjY2NSBDNC41Njk2LDI0LjY2NSA0LjEyMTYsMjQuMjE3IDQuMTIxNiwyMy42NjUgQzQuMTIxNiwyMy4xMTMgNC41Njk2LDIyLjY2NSA1LjEyMTYsMjIuNjY1IiBpZD0iRmlsbC03Ij48L3BhdGg+CiAgICAgICAgICAgIDxwYXRoIGQ9Ik0yLDI2IEwyMiwyNiBMMjIsMjIgTDIsMjIgTDIsMjYgWiBNMjIsMjggTDIsMjggQzAuODk2LDI3Ljk5OSAwLjAwMSwyNy4xMDQgMCwyNiBMMCwyMiBDMC4wMDEsMjAuODk2IDAuODk2LDIwLjAwMSAyLDIwIEwyMiwyMCBDMjMuMTA0LDIwLjAwMSAyMy45OTksMjAuODk2IDI0LDIyIEwyNCwyNiBDMjMuOTk5LDI3LjEwNCAyMy4xMDQsMjcuOTk5IDIyLDI4IEwyMiwyOCBaIiBpZD0iRmlsbC04Ij48L3BhdGg+CiAgICAgICAgPC9nPgogICAgPC9nPgo8L3N2Zz4=;fontSize=12;" parent="xAL0oVeXehvFhAx98EFK-29" vertex="1">
          <mxGeometry x="20" y="7.5" width="16" height="18.65" as="geometry" />
        </mxCell>
        <mxCell id="xAL0oVeXehvFhAx98EFK-35" value="&lt;span style=&quot;color: rgb(35 , 47 , 62) ; font-family: &amp;quot;helvetica&amp;quot; ; font-size: 8px ; font-style: normal ; font-weight: 400 ; letter-spacing: normal ; text-align: center ; text-indent: 0px ; text-transform: none ; word-spacing: 0px ; background-color: rgb(248 , 249 , 250) ; display: inline ; float: none&quot;&gt;Dedicated&lt;br&gt;External Network&lt;br&gt;(T0 VRF)&lt;/span&gt;" style="outlineConnect=0;fontColor=#232F3E;gradientColor=none;strokeColor=none;dashed=0;verticalLabelPosition=middle;verticalAlign=middle;align=right;html=1;fontSize=8;fontStyle=0;aspect=fixed;pointerEvents=1;shape=mxgraph.aws4.router;labelBackgroundColor=none;fillColor=#000000;labelPosition=left;spacing=3;spacingBottom=0;spacingTop=0;" parent="xAL0oVeXehvFhAx98EFK-7" vertex="1">
          <mxGeometry x="-1465" y="160" width="26" height="26" as="geometry" />
        </mxCell>
        <mxCell id="xAL0oVeXehvFhAx98EFK-36" value="" style="html=1;labelBackgroundColor=#ffffff;startArrow=none;startFill=0;startSize=6;endArrow=none;endFill=0;endSize=6;jettySize=auto;orthogonalLoop=1;strokeWidth=1;fontSize=14;" parent="xAL0oVeXehvFhAx98EFK-7" source="xAL0oVeXehvFhAx98EFK-37" target="xAL0oVeXehvFhAx98EFK-35" edge="1">
          <mxGeometry width="60" height="60" relative="1" as="geometry">
            <mxPoint x="-1358" y="248.99999999999955" as="sourcePoint" />
            <mxPoint x="-1357.2745098039218" y="286" as="targetPoint" />
          </mxGeometry>
        </mxCell>
        <mxCell id="xAL0oVeXehvFhAx98EFK-37" value="&lt;span style=&quot;color: rgb(35 , 47 , 62) ; font-family: &amp;quot;helvetica&amp;quot; ; font-size: 8px ; font-style: normal ; font-weight: 400 ; letter-spacing: normal ; text-align: center ; text-indent: 0px ; text-transform: none ; word-spacing: 0px ; background-color: rgb(248 , 249 , 250) ; display: inline ; float: none&quot;&gt;Edge&lt;br&gt;gateway &lt;br&gt;(T1)&lt;/span&gt;" style="outlineConnect=0;fontColor=#232F3E;gradientColor=none;strokeColor=none;dashed=0;verticalLabelPosition=bottom;verticalAlign=top;align=center;html=1;fontSize=8;fontStyle=0;aspect=fixed;pointerEvents=1;shape=mxgraph.aws4.router;labelBackgroundColor=none;fillColor=#000000;labelPosition=center;spacing=0;" parent="xAL0oVeXehvFhAx98EFK-7" vertex="1">
          <mxGeometry x="-1401" y="164" width="18" height="18" as="geometry" />
        </mxCell>
        <mxCell id="xAL0oVeXehvFhAx98EFK-38" value="" style="html=1;labelBackgroundColor=#ffffff;startArrow=none;startFill=0;startSize=6;endArrow=none;endFill=0;endSize=6;jettySize=auto;orthogonalLoop=1;strokeWidth=1;fontSize=14;" parent="xAL0oVeXehvFhAx98EFK-7" target="xAL0oVeXehvFhAx98EFK-37" edge="1">
          <mxGeometry width="60" height="60" relative="1" as="geometry">
            <mxPoint x="-1142.5" y="173" as="sourcePoint" />
            <mxPoint x="-1359" y="173" as="targetPoint" />
          </mxGeometry>
        </mxCell>
        <mxCell id="xAL0oVeXehvFhAx98EFK-39" value="Managed Virtual Machines" style="text;html=1;strokeColor=none;fillColor=none;align=left;verticalAlign=middle;whiteSpace=wrap;rounded=0;fontSize=8;labelPosition=center;verticalLabelPosition=middle;" parent="xAL0oVeXehvFhAx98EFK-7" vertex="1">
          <mxGeometry x="-1052.5" y="168" width="75" height="10" as="geometry" />
        </mxCell>
        <mxCell id="xAL0oVeXehvFhAx98EFK-40" value="" style="endArrow=none;html=1;strokeColor=#000000;fontSize=10;fontColor=#000000;align=left;endFill=0;" parent="xAL0oVeXehvFhAx98EFK-7" edge="1">
          <mxGeometry width="50" height="50" relative="1" as="geometry">
            <mxPoint x="-1197.62" y="172.49999999999977" as="sourcePoint" />
            <mxPoint x="-1197.6200000000003" y="159.99999999999977" as="targetPoint" />
          </mxGeometry>
        </mxCell>
        <mxCell id="xAL0oVeXehvFhAx98EFK-87" value="" style="strokeWidth=1;html=1;shape=mxgraph.flowchart.annotation_2;align=left;labelPosition=right;pointerEvents=1;labelBackgroundColor=none;fontSize=10;fontColor=default;fillColor=#B9E0A5;rotation=-180;" parent="xAL0oVeXehvFhAx98EFK-7" vertex="1">
          <mxGeometry x="-1077.5" y="150.87" width="20" height="44.25" as="geometry" />
        </mxCell>
        <mxCell id="xAL0oVeXehvFhAx98EFK-98" value="db-network-1" style="text;html=1;strokeColor=none;fillColor=none;align=left;verticalAlign=middle;whiteSpace=wrap;rounded=0;fontSize=8;labelPosition=center;verticalLabelPosition=middle;" parent="xAL0oVeXehvFhAx98EFK-7" vertex="1">
          <mxGeometry x="-1137.5" y="168" width="104" height="10" as="geometry" />
        </mxCell>
        <mxCell id="xAL0oVeXehvFhAx98EFK-102" value="" style="pointerEvents=1;shadow=0;dashed=0;html=1;strokeColor=none;fillColor=#434445;aspect=fixed;labelPosition=center;verticalLabelPosition=top;verticalAlign=bottom;align=center;outlineConnect=0;shape=mxgraph.vvd.virtual_machine;fontSize=8;" parent="xAL0oVeXehvFhAx98EFK-7" vertex="1">
          <mxGeometry x="-1207.5" y="140" width="20" height="20" as="geometry" />
        </mxCell>
        <mxCell id="TKmo4vX7DHY3hrmNmWEa-0" value="" style="pointerEvents=1;shadow=0;dashed=0;html=1;strokeColor=none;fillColor=#434445;aspect=fixed;labelPosition=center;verticalLabelPosition=top;verticalAlign=bottom;align=center;outlineConnect=0;shape=mxgraph.vvd.virtual_machine;fontSize=8;" parent="xAL0oVeXehvFhAx98EFK-7" vertex="1">
          <mxGeometry x="-1232.5" y="140" width="20" height="20" as="geometry" />
        </mxCell>
        <mxCell id="TKmo4vX7DHY3hrmNmWEa-1" value="" style="endArrow=none;html=1;strokeColor=#000000;fontSize=10;fontColor=#000000;align=left;endFill=0;" parent="xAL0oVeXehvFhAx98EFK-7" edge="1">
          <mxGeometry width="50" height="50" relative="1" as="geometry">
            <mxPoint x="-1222.62" y="172.49999999999977" as="sourcePoint" />
            <mxPoint x="-1222.6200000000003" y="159.99999999999977" as="targetPoint" />
          </mxGeometry>
        </mxCell>
        <mxCell id="TKmo4vX7DHY3hrmNmWEa-2" value="" style="endArrow=none;html=1;strokeColor=#000000;fontSize=10;fontColor=#000000;align=left;endFill=0;" parent="xAL0oVeXehvFhAx98EFK-7" edge="1">
          <mxGeometry width="50" height="50" relative="1" as="geometry">
            <mxPoint x="-1247.62" y="172.49999999999977" as="sourcePoint" />
            <mxPoint x="-1247.6200000000003" y="159.99999999999977" as="targetPoint" />
          </mxGeometry>
        </mxCell>
        <mxCell id="TKmo4vX7DHY3hrmNmWEa-3" value="" style="pointerEvents=1;shadow=0;dashed=0;html=1;strokeColor=none;fillColor=#434445;aspect=fixed;labelPosition=center;verticalLabelPosition=top;verticalAlign=bottom;align=center;outlineConnect=0;shape=mxgraph.vvd.virtual_machine;fontSize=8;" parent="xAL0oVeXehvFhAx98EFK-7" vertex="1">
          <mxGeometry x="-1257.5" y="140" width="20" height="20" as="geometry" />
        </mxCell>
        <mxCell id="TKmo4vX7DHY3hrmNmWEa-4" value="" style="pointerEvents=1;shadow=0;dashed=0;html=1;strokeColor=none;fillColor=#434445;aspect=fixed;labelPosition=center;verticalLabelPosition=top;verticalAlign=bottom;align=center;outlineConnect=0;shape=mxgraph.vvd.virtual_machine;fontSize=8;" parent="xAL0oVeXehvFhAx98EFK-7" vertex="1">
          <mxGeometry x="-1282.5" y="140" width="20" height="20" as="geometry" />
        </mxCell>
        <mxCell id="TKmo4vX7DHY3hrmNmWEa-5" value="" style="endArrow=none;html=1;strokeColor=#000000;fontSize=10;fontColor=#000000;align=left;endFill=0;" parent="xAL0oVeXehvFhAx98EFK-7" edge="1">
          <mxGeometry width="50" height="50" relative="1" as="geometry">
            <mxPoint x="-1272.62" y="172.49999999999977" as="sourcePoint" />
            <mxPoint x="-1272.6200000000003" y="159.99999999999977" as="targetPoint" />
          </mxGeometry>
        </mxCell>
        <mxCell id="TKmo4vX7DHY3hrmNmWEa-6" value="" style="endArrow=none;html=1;strokeColor=#000000;fontSize=10;fontColor=#000000;align=left;endFill=0;" parent="xAL0oVeXehvFhAx98EFK-7" edge="1">
          <mxGeometry width="50" height="50" relative="1" as="geometry">
            <mxPoint x="-1297.62" y="172.49999999999977" as="sourcePoint" />
            <mxPoint x="-1297.6200000000003" y="159.99999999999977" as="targetPoint" />
          </mxGeometry>
        </mxCell>
        <mxCell id="TKmo4vX7DHY3hrmNmWEa-7" value="" style="pointerEvents=1;shadow=0;dashed=0;html=1;strokeColor=none;fillColor=#434445;aspect=fixed;labelPosition=center;verticalLabelPosition=top;verticalAlign=bottom;align=center;outlineConnect=0;shape=mxgraph.vvd.virtual_machine;fontSize=8;" parent="xAL0oVeXehvFhAx98EFK-7" vertex="1">
          <mxGeometry x="-1307.5" y="140" width="20" height="20" as="geometry" />
        </mxCell>
        <mxCell id="TKmo4vX7DHY3hrmNmWEa-8" value="" style="pointerEvents=1;shadow=0;dashed=0;html=1;strokeColor=none;fillColor=#434445;aspect=fixed;labelPosition=center;verticalLabelPosition=top;verticalAlign=bottom;align=center;outlineConnect=0;shape=mxgraph.vvd.virtual_machine;fontSize=8;" parent="xAL0oVeXehvFhAx98EFK-7" vertex="1">
          <mxGeometry x="-1332.5" y="140" width="20" height="20" as="geometry" />
        </mxCell>
        <mxCell id="TKmo4vX7DHY3hrmNmWEa-9" value="" style="endArrow=none;html=1;strokeColor=#000000;fontSize=10;fontColor=#000000;align=left;endFill=0;" parent="xAL0oVeXehvFhAx98EFK-7" edge="1">
          <mxGeometry width="50" height="50" relative="1" as="geometry">
            <mxPoint x="-1322.62" y="172.49999999999977" as="sourcePoint" />
            <mxPoint x="-1322.6200000000003" y="159.99999999999977" as="targetPoint" />
          </mxGeometry>
        </mxCell>
        <mxCell id="TKmo4vX7DHY3hrmNmWEa-10" value="" style="rounded=1;whiteSpace=wrap;html=1;strokeColor=#000000;" parent="xAL0oVeXehvFhAx98EFK-7" vertex="1">
          <mxGeometry x="-1195" y="233.75" width="14" height="5" as="geometry" />
        </mxCell>
        <mxCell id="TKmo4vX7DHY3hrmNmWEa-11" value="" style="rounded=1;whiteSpace=wrap;html=1;strokeColor=#000000;" parent="xAL0oVeXehvFhAx98EFK-7" vertex="1">
          <mxGeometry x="-1176" y="233.75" width="14" height="5" as="geometry" />
        </mxCell>
        <mxCell id="TKmo4vX7DHY3hrmNmWEa-12" value="" style="rounded=1;whiteSpace=wrap;html=1;strokeColor=#000000;" parent="xAL0oVeXehvFhAx98EFK-7" vertex="1">
          <mxGeometry x="-1158" y="233.75" width="14" height="5" as="geometry" />
        </mxCell>
        <mxCell id="TKmo4vX7DHY3hrmNmWEa-13" value="" style="rounded=1;whiteSpace=wrap;html=1;strokeColor=#000000;" parent="xAL0oVeXehvFhAx98EFK-7" vertex="1">
          <mxGeometry x="-1139" y="233.75" width="14" height="5" as="geometry" />
        </mxCell>
        <mxCell id="TKmo4vX7DHY3hrmNmWEa-14" value="" style="rounded=1;whiteSpace=wrap;html=1;strokeColor=#000000;" parent="xAL0oVeXehvFhAx98EFK-7" vertex="1">
          <mxGeometry x="-1121" y="233.75" width="14" height="5" as="geometry" />
        </mxCell>
        <mxCell id="TKmo4vX7DHY3hrmNmWEa-15" value="" style="rounded=1;whiteSpace=wrap;html=1;strokeColor=#000000;" parent="xAL0oVeXehvFhAx98EFK-7" vertex="1">
          <mxGeometry x="-1102" y="233.75" width="14" height="5" as="geometry" />
        </mxCell>
        <mxCell id="TKmo4vX7DHY3hrmNmWEa-17" value="Custom VM Tags" style="text;html=1;strokeColor=none;fillColor=none;align=center;verticalAlign=middle;whiteSpace=wrap;rounded=0;fontSize=8;" parent="xAL0oVeXehvFhAx98EFK-7" vertex="1">
          <mxGeometry x="-1057.5" y="231.25" width="75" height="10" as="geometry" />
        </mxCell>
        <mxCell id="TKmo4vX7DHY3hrmNmWEa-18" value="" style="strokeWidth=1;html=1;shape=mxgraph.flowchart.annotation_2;align=left;labelPosition=right;pointerEvents=1;labelBackgroundColor=none;fontSize=10;fontColor=default;fillColor=#B9E0A5;rotation=-180;" parent="xAL0oVeXehvFhAx98EFK-7" vertex="1">
          <mxGeometry x="-1077.5" y="220" width="20" height="32.5" as="geometry" />
        </mxCell>
        <mxCell id="TKmo4vX7DHY3hrmNmWEa-19" value="" style="endArrow=none;dashed=1;html=1;dashPattern=1 3;strokeWidth=1;rounded=0;" parent="xAL0oVeXehvFhAx98EFK-7" edge="1">
          <mxGeometry width="50" height="50" relative="1" as="geometry">
            <mxPoint x="-1260" y="175" as="sourcePoint" />
            <mxPoint x="-1200" y="235" as="targetPoint" />
          </mxGeometry>
        </mxCell>
        <mxCell id="TKmo4vX7DHY3hrmNmWEa-20" value="" style="endArrow=none;dashed=1;html=1;dashPattern=1 3;strokeWidth=1;rounded=0;" parent="xAL0oVeXehvFhAx98EFK-7" edge="1">
          <mxGeometry width="50" height="50" relative="1" as="geometry">
            <mxPoint x="-1255" y="175" as="sourcePoint" />
            <mxPoint x="-1090" y="225" as="targetPoint" />
          </mxGeometry>
        </mxCell>
        <mxCell id="zXWHg87qyEFcos2RrubC-0" value="" style="rounded=0;whiteSpace=wrap;html=1;fontFamily=IBM Plex Sans;fontSource=fonts%2FIBMPlexSans-Regular.woff;fontSize=12;spacingBottom=-28;spacingTop=0;labelPosition=-100;verticalLabelPosition=top;align=center;verticalAlign=bottom;spacingLeft=9;spacing=0;expand=0;recursiveResize=0;spacingRight=0;container=0;collapsible=0;strokeColor=#1192E8;fillColor=none;dropTarget=0;" parent="xAL0oVeXehvFhAx98EFK-7" vertex="1">
          <mxGeometry x="-1630" y="295" width="660" height="165" as="geometry">
            <mxRectangle width="670" as="alternateBounds" />
          </mxGeometry>
        </mxCell>
        <mxCell id="zXWHg87qyEFcos2RrubC-1" value="" style="rounded=0;whiteSpace=wrap;html=1;strokeColor=none;fillColor=#1192E8;fontSize=12;" parent="zXWHg87qyEFcos2RrubC-0" vertex="1">
          <mxGeometry width="7" height="37" as="geometry" />
        </mxCell>
        <mxCell id="zXWHg87qyEFcos2RrubC-2" value="Code Engine" style="text;html=1;strokeColor=none;fillColor=none;align=left;verticalAlign=middle;whiteSpace=wrap;rounded=0;fontFamily=IBM Plex Sans;fontSource=fonts%2FIBMPlexSans-Regular.woff;fontSize=12;" parent="zXWHg87qyEFcos2RrubC-0" vertex="1">
          <mxGeometry x="51" y="8" width="163" height="20" as="geometry" />
        </mxCell>
        <mxCell id="zXWHg87qyEFcos2RrubC-3" value="" style="shape=image;aspect=fixed;image=data:image/svg+xml,PD94bWwgdmVyc2lvbj0iMS4wIiBlbmNvZGluZz0iVVRGLTgiPz4KPHN2ZyB3aWR0aD0iMzNweCIgaGVpZ2h0PSIyNnB4IiB2aWV3Qm94PSIwIDAgMzMgMjYiIHZlcnNpb249IjEuMSIgeG1sbnM9Imh0dHA6Ly93d3cudzMub3JnLzIwMDAvc3ZnIiB4bWxuczp4bGluaz0iaHR0cDovL3d3dy53My5vcmcvMTk5OS94bGluayI+CiAgICA8IS0tIEdlbmVyYXRvcjogU2tldGNoIDUzICg3MjUyMCkgLSBodHRwczovL3NrZXRjaGFwcC5jb20gLS0+CiAgICA8dGl0bGU+Q2xvdWQgU2VydmljZXMgQmxhY2s8L3RpdGxlPgogICAgPGRlc2M+Q3JlYXRlZCB3aXRoIFNrZXRjaC48L2Rlc2M+CiAgICA8ZyBpZD0iUGFnZS0xIiBzdHJva2U9Im5vbmUiIHN0cm9rZS13aWR0aD0iMSIgZmlsbD0ibm9uZSIgZmlsbC1ydWxlPSJldmVub2RkIj4KICAgICAgICA8ZyBpZD0iQ2xvdWQtU2VydmljZXMtQmxhY2siIHRyYW5zZm9ybT0idHJhbnNsYXRlKDAuMDYyNTAwLCAtMS4wMDAwMDApIiBmaWxsPSIjMDAwMDAwIj4KICAgICAgICAgICAgPGcgaWQ9Ikdyb3VwLTMiIHRyYW5zZm9ybT0idHJhbnNsYXRlKDAuMDAwMDAwLCAwLjAwMjAwMCkiPgogICAgICAgICAgICAgICAgPHBhdGggZD0iTTI1LjgyMzEsOS4xMjQgQzI0Ljc4NzEsMy43IDE5LjU1MTEsMC4xNDIgMTQuMTI2MSwxLjE3NyBDMTAuMDk4MSwxLjk0NiA2Ljk0ODEsNS4wOTYgNi4xNzkxLDkuMTI0IEMwLjA5MjEsMTAuMjExIC0yLjk1NzksMTguMzYzIDMuOTY0MSwyMy42MzIgQzQuMjg1MSwyMy44NzcgNC42ODkxLDI0IDUuMDkzMSwyNCBMOC4wMDExLDI0IEw4LjAwMTEsMjIgTDUuNDQ4MSwyMiBDNS4xMDQxLDIyIDQuNzYyMSwyMS44NzcgNC41MTExLDIxLjY0MiBDLTAuMzUzOSwxNy4wODYgMi41ODYxLDExLjMzIDcuMTI0MSwxMS4wMiBMNy45NjExLDEwLjk2MyBMOC4zNTYxLDcuMjk4IEM4LjQwNzEsNi44MzIgOC42MTMxLDYuMzg2IDguOTU3MSw2LjA2NyBDMTUuNjAxMSwtMC4wOTQgMjMuMjc2MSwzLjkzNyAyMy45NTIxLDEwLjEzIEwyNC4wNDIxLDEwLjk2MyBMMjYuOTI2MSwxMS4xNiBDMjcuMjY5MSwxMS4xODQgMjcuNjAxMSwxMS4zMyAyNy44MzUxLDExLjU4MiBDMzIuMzc5MSwxNi40NiAyOS4wNTAxLDIyLjAwMyAyNC41MDExLDIyIEwyNC4wMDExLDIyIEwyNC4wMDExLDI0IEwyNy4yMTUxLDI0IEMyNy42NjExLDI0IDI4LjEwMzEsMjMuODQ4IDI4LjQzNzEsMjMuNTUyIEMzNC45MTQxLDE3LjgxNiAzMS42NjgxLDEwLjE2OCAyNS44MjMxLDkuMTI0IiBpZD0iRmlsbC0xIj48L3BhdGg+CiAgICAgICAgICAgIDwvZz4KICAgICAgICAgICAgPHBhdGggZD0iTTE1LjU3NCwyMi44MjU3IEMxMy45MTcsMjIuODI1NyAxMi41NzQsMjEuNDgyNyAxMi41NzQsMTkuODI1NyBDMTIuNTc0LDE4LjE2ODcgMTMuOTE3LDE2LjgyNTcgMTUuNTc0LDE2LjgyNTcgQzE3LjIzMSwxNi44MjU3IDE4LjU3NCwxOC4xNjg3IDE4LjU3NCwxOS44MjU3IEMxOC41NzIsMjEuNDgxNyAxNy4yMywyMi44MjM3IDE1LjU3NCwyMi44MjU3IEwxNS41NzQsMjIuODI1NyBaIE0yMy4wMDEsMjEuMDAxNyBMMjMuMDAxLDE5LjAwMTcgTDIwLjksMTkuMDAxNyBDMjAuNzcxLDE4LjM3NTcgMjAuNTIzLDE3Ljc4MDcgMjAuMTY4LDE3LjI0ODcgTDIxLjY1OCwxNS43NTk3IEwyMC4yNDQsMTQuMzQ1NyBMMTguNzU0LDE1LjgzNDcgQzE4LjIyMiwxNS40ODA3IDE3LjYyNywxNS4yMzE3IDE3LjAwMSwxNS4xMDI3IEwxNy4wMDEsMTMuMDAxNyBMMTUuMDAxLDEzLjAwMTcgTDE1LjAwMSwxNS4xMDI3IEMxNC4zNzUsMTUuMjMxNyAxMy43OCwxNS40ODA3IDEzLjI0OCwxNS44MzQ3IEwxMS43NTgsMTQuMzQ0NyBMMTAuMzQ1LDE1Ljc1ODcgTDExLjgzNCwxNy4yNDg3IEMxMS40OCwxNy43ODA3IDExLjIzMSwxOC4zNzU3IDExLjEwMiwxOS4wMDE3IEw5LjAwMSwxOS4wMDE3IEw5LjAwMSwyMS4wMDE3IEwxMS4xMDIsMjEuMDAxNyBDMTEuMjMxLDIxLjYyNzcgMTEuNDgsMjIuMjIyNyAxMS44MzQsMjIuNzU0NyBMMTAuMzQ0LDI0LjI0NDcgTDExLjc1OCwyNS42NTg3IEwxMy4yNDgsMjQuMTY4NyBDMTMuNzgsMjQuNTIzNyAxNC4zNzUsMjQuNzcxNyAxNS4wMDEsMjQuOTAwNyBMMTUuMDAxLDI3LjAwMTcgTDE3LjAwMSwyNy4wMDE3IEwxNy4wMDEsMjQuOTAwNyBDMTcuNjI3LDI0Ljc3MTcgMTguMjIyLDI0LjUyMzcgMTguNzU0LDI0LjE2ODcgTDIwLjI0NCwyNS42NTg3IEwyMS42NTgsMjQuMjQ0NyBMMjAuMTY4LDIyLjc1NDcgQzIwLjUyMywyMi4yMjI3IDIwLjc3MSwyMS42Mjc3IDIwLjksMjEuMDAxNyBMMjMuMDAxLDIxLjAwMTcgWiIgaWQ9IkZpbGwtNCI+PC9wYXRoPgogICAgICAgIDwvZz4KICAgIDwvZz4KPC9zdmc+;fontSize=12;" parent="zXWHg87qyEFcos2RrubC-0" vertex="1">
          <mxGeometry x="20" y="6.65" width="25" height="19.71" as="geometry" />
        </mxCell>
        <mxCell id="zXWHg87qyEFcos2RrubC-4" value="Scheduler Job" style="shape=image;aspect=fixed;image=data:image/svg+xml,PHN2ZyBpZD0iTGF5ZXJfMSIgZGF0YS1uYW1lPSJMYXllciAxIiB4bWxucz0iaHR0cDovL3d3dy53My5vcmcvMjAwMC9zdmciIHZpZXdCb3g9IjAgMCA0OSA0OSI+PGRlZnM+PHN0eWxlPi5jbHMtMXtmaWxsOiNhNTZlZmY7fS5jbHMtMntmaWxsOiNmZmY7fS5jbHMtM3tmaWxsOm5vbmU7fTwvc3R5bGU+PC9kZWZzPjxyZWN0IGNsYXNzPSJjbHMtMSIgeD0iMC41IiB5PSIwLjUiIHdpZHRoPSI0OCIgaGVpZ2h0PSI0OCIvPjxwYXRoIGNsYXNzPSJjbHMtMiIgZD0iTTE3Ljc3LDMwLjA5YTguNzUsOC43NSwwLDAsMSw0LjQ3LTE0bC4zMiwxLjJhNy41LDcuNSwwLDAsMC0zLjgzLDEyWiIvPjxwYXRoIGNsYXNzPSJjbHMtMiIgZD0iTTI2Ljc3LDMzbC0uMzMtMS4yYTcuNSw3LjUsMCwwLDAsMy44My0xMmwxLS44YTguNzUsOC43NSwwLDAsMS00LjQ2LDE0WiIvPjxyZWN0IGNsYXNzPSJjbHMtMyIgeD0iMTQuNSIgeT0iMTQuNSIgd2lkdGg9IjIwIiBoZWlnaHQ9IjIwIi8+PHBhdGggY2xhc3M9ImNscy0yIiBkPSJNMjAuNzUsMzIuNjNIMTkuNVYzMC4yNGwuNS0uMWMuOTEtLjE4LDItLjg4LDItMy4xNHYtLjg2bC0yLjUtMS4yNXYtMS40TDIyLDIyLjI0VjIyYzAtMy40MiwyLjQ1LTUuNjIsNi4yNS01LjYySDI5LjV2Mi4zOGwtLjUuMWMtLjkxLjE4LTIsLjg4LTIsMy4xNHYuMjRsMi41LDEuMjV2MS40TDI3LDI2LjE0VjI3QzI3LDMwLjQyLDI0LjU1LDMyLjYzLDIwLjc1LDMyLjYzWm0wLTEuMjVjMy4wOCwwLDUtMS42OCw1LTQuMzhWMjUuMzZsMi4zNS0xLjE3TDI1Ljc1LDIzVjIyYzAtMi44NiwxLjQ5LTMuODcsMi41LTQuMjJ2LS4xNWMtMy4wOCwwLTUsMS42Ny01LDQuMzd2MUwyMC45LDI0LjE5bDIuMzUsMS4xN1YyN2MwLDIuODYtMS40OSwzLjg3LTIuNSw0LjIyWiIvPjwvc3ZnPg==;fontFamily=IBM Plex Sans;fontSource=fonts%2FIBMPlexSans-Regular.woff;labelPosition=center;verticalLabelPosition=bottom;align=center;verticalAlign=top;spacingTop=-7;fontSize=10;" parent="xAL0oVeXehvFhAx98EFK-7" vertex="1">
          <mxGeometry x="-1236" y="380" width="55" height="55" as="geometry" />
        </mxCell>
        <mxCell id="zXWHg87qyEFcos2RrubC-5" value="&lt;font style=&quot;font-size: 8px;&quot;&gt;Read&lt;br&gt;Tags&lt;/font&gt;" style="verticalLabelPosition=middle;verticalAlign=middle;html=1;shape=mxgraph.flowchart.on-page_reference;labelPosition=center;align=center;strokeColor=#7EA6E0;" parent="xAL0oVeXehvFhAx98EFK-7" vertex="1">
          <mxGeometry x="-1162" y="320" width="44" height="44" as="geometry" />
        </mxCell>
        <mxCell id="zXWHg87qyEFcos2RrubC-7" value="&lt;span style=&quot;font-size: 8px;&quot;&gt;stop/start&lt;br&gt;&lt;/span&gt;&lt;font style=&quot;font-size: 8px;&quot;&gt;VM&lt;/font&gt;" style="verticalLabelPosition=middle;verticalAlign=middle;html=1;shape=mxgraph.flowchart.on-page_reference;labelPosition=center;align=center;strokeColor=#7EA6E0;" parent="xAL0oVeXehvFhAx98EFK-7" vertex="1">
          <mxGeometry x="-1297" y="320" width="44" height="44" as="geometry" />
        </mxCell>
        <mxCell id="zXWHg87qyEFcos2RrubC-8" value="" style="html=1;labelBackgroundColor=#ffffff;endArrow=none;endFill=0;endSize=6;jettySize=auto;orthogonalLoop=1;strokeWidth=1;fontSize=14;rounded=1;entryX=0.5;entryY=0;entryDx=0;entryDy=0;entryPerimeter=0;" parent="xAL0oVeXehvFhAx98EFK-7" target="zXWHg87qyEFcos2RrubC-5" edge="1">
          <mxGeometry width="60" height="60" relative="1" as="geometry">
            <mxPoint x="-1140" y="245" as="sourcePoint" />
            <mxPoint x="-1045" y="680" as="targetPoint" />
          </mxGeometry>
        </mxCell>
        <mxCell id="zXWHg87qyEFcos2RrubC-9" value="" style="html=1;labelBackgroundColor=#ffffff;endArrow=classic;endFill=1;endSize=6;jettySize=auto;orthogonalLoop=1;strokeWidth=1;fontSize=14;rounded=1;entryX=1;entryY=0.5;entryDx=0;entryDy=0;exitX=0.5;exitY=1;exitDx=0;exitDy=0;exitPerimeter=0;" parent="xAL0oVeXehvFhAx98EFK-7" source="zXWHg87qyEFcos2RrubC-5" target="zXWHg87qyEFcos2RrubC-4" edge="1">
          <mxGeometry width="60" height="60" relative="1" as="geometry">
            <mxPoint x="-895" y="410" as="sourcePoint" />
            <mxPoint x="-895" y="485" as="targetPoint" />
            <Array as="points">
              <mxPoint x="-1140" y="408" />
            </Array>
          </mxGeometry>
        </mxCell>
        <mxCell id="zXWHg87qyEFcos2RrubC-10" value="" style="html=1;labelBackgroundColor=#ffffff;endArrow=none;endFill=0;endSize=6;jettySize=auto;orthogonalLoop=1;strokeWidth=1;fontSize=14;rounded=1;entryX=0;entryY=0.5;entryDx=0;entryDy=0;exitX=0.5;exitY=1;exitDx=0;exitDy=0;exitPerimeter=0;" parent="xAL0oVeXehvFhAx98EFK-7" source="zXWHg87qyEFcos2RrubC-7" target="zXWHg87qyEFcos2RrubC-4" edge="1">
          <mxGeometry width="60" height="60" relative="1" as="geometry">
            <mxPoint x="-1130" y="255" as="sourcePoint" />
            <mxPoint x="-1130" y="330" as="targetPoint" />
            <Array as="points">
              <mxPoint x="-1275" y="408" />
            </Array>
          </mxGeometry>
        </mxCell>
        <mxCell id="zXWHg87qyEFcos2RrubC-11" value="" style="html=1;labelBackgroundColor=#ffffff;endArrow=none;endFill=0;endSize=6;jettySize=auto;orthogonalLoop=1;strokeWidth=1;fontSize=14;rounded=1;entryX=0.5;entryY=0;entryDx=0;entryDy=0;entryPerimeter=0;startArrow=classic;startFill=1;" parent="xAL0oVeXehvFhAx98EFK-7" target="zXWHg87qyEFcos2RrubC-7" edge="1">
          <mxGeometry width="60" height="60" relative="1" as="geometry">
            <mxPoint x="-1275" y="185" as="sourcePoint" />
            <mxPoint x="-1125" y="335" as="targetPoint" />
          </mxGeometry>
        </mxCell>
        <mxCell id="xAL0oVeXehvFhAx98EFK-107" value="Steps - 1" parent="xAL0oVeXehvFhAx98EFK-0" />
      </root>
    </mxGraphModel>
  </diagram>
  <diagram id="yWOKgkLknIZMLdk2Wjrx" name="scheduler">
    <mxGraphModel dx="2687" dy="826" grid="1" gridSize="10" guides="1" tooltips="1" connect="1" arrows="1" fold="1" page="1" pageScale="1" pageWidth="827" pageHeight="1169" math="0" shadow="0">
      <root>
        <mxCell id="0" />
        <mxCell id="_AiZ8yTpOUA7BHtMgnwv-1" value="Code engine" parent="0" />
        <mxCell id="eWvYWL_rQkgchVLTD9YQ-1" value="" style="rounded=0;whiteSpace=wrap;html=1;fontFamily=IBM Plex Sans;fontSource=fonts%2FIBMPlexSans-Regular.woff;fontSize=12;spacingBottom=-28;spacingTop=0;labelPosition=-100;verticalLabelPosition=top;align=center;verticalAlign=bottom;spacingLeft=9;spacing=0;expand=0;recursiveResize=0;spacingRight=0;container=0;collapsible=0;strokeColor=#1192E8;fillColor=none;dropTarget=0;" vertex="1" parent="_AiZ8yTpOUA7BHtMgnwv-1">
          <mxGeometry x="-1620" y="10" width="760" height="430" as="geometry">
            <mxRectangle width="670" as="alternateBounds" />
          </mxGeometry>
        </mxCell>
        <mxCell id="eWvYWL_rQkgchVLTD9YQ-2" value="" style="rounded=0;whiteSpace=wrap;html=1;strokeColor=none;fillColor=#1192E8;fontSize=12;" vertex="1" parent="eWvYWL_rQkgchVLTD9YQ-1">
          <mxGeometry width="7" height="37" as="geometry" />
        </mxCell>
        <mxCell id="eWvYWL_rQkgchVLTD9YQ-3" value="Code Engine" style="text;html=1;strokeColor=none;fillColor=none;align=left;verticalAlign=middle;whiteSpace=wrap;rounded=0;fontFamily=IBM Plex Sans;fontSource=fonts%2FIBMPlexSans-Regular.woff;fontSize=12;" vertex="1" parent="eWvYWL_rQkgchVLTD9YQ-1">
          <mxGeometry x="51" y="8" width="163" height="20" as="geometry" />
        </mxCell>
        <mxCell id="eWvYWL_rQkgchVLTD9YQ-4" value="" style="shape=image;aspect=fixed;image=data:image/svg+xml,PD94bWwgdmVyc2lvbj0iMS4wIiBlbmNvZGluZz0iVVRGLTgiPz4KPHN2ZyB3aWR0aD0iMzNweCIgaGVpZ2h0PSIyNnB4IiB2aWV3Qm94PSIwIDAgMzMgMjYiIHZlcnNpb249IjEuMSIgeG1sbnM9Imh0dHA6Ly93d3cudzMub3JnLzIwMDAvc3ZnIiB4bWxuczp4bGluaz0iaHR0cDovL3d3dy53My5vcmcvMTk5OS94bGluayI+CiAgICA8IS0tIEdlbmVyYXRvcjogU2tldGNoIDUzICg3MjUyMCkgLSBodHRwczovL3NrZXRjaGFwcC5jb20gLS0+CiAgICA8dGl0bGU+Q2xvdWQgU2VydmljZXMgQmxhY2s8L3RpdGxlPgogICAgPGRlc2M+Q3JlYXRlZCB3aXRoIFNrZXRjaC48L2Rlc2M+CiAgICA8ZyBpZD0iUGFnZS0xIiBzdHJva2U9Im5vbmUiIHN0cm9rZS13aWR0aD0iMSIgZmlsbD0ibm9uZSIgZmlsbC1ydWxlPSJldmVub2RkIj4KICAgICAgICA8ZyBpZD0iQ2xvdWQtU2VydmljZXMtQmxhY2siIHRyYW5zZm9ybT0idHJhbnNsYXRlKDAuMDYyNTAwLCAtMS4wMDAwMDApIiBmaWxsPSIjMDAwMDAwIj4KICAgICAgICAgICAgPGcgaWQ9Ikdyb3VwLTMiIHRyYW5zZm9ybT0idHJhbnNsYXRlKDAuMDAwMDAwLCAwLjAwMjAwMCkiPgogICAgICAgICAgICAgICAgPHBhdGggZD0iTTI1LjgyMzEsOS4xMjQgQzI0Ljc4NzEsMy43IDE5LjU1MTEsMC4xNDIgMTQuMTI2MSwxLjE3NyBDMTAuMDk4MSwxLjk0NiA2Ljk0ODEsNS4wOTYgNi4xNzkxLDkuMTI0IEMwLjA5MjEsMTAuMjExIC0yLjk1NzksMTguMzYzIDMuOTY0MSwyMy42MzIgQzQuMjg1MSwyMy44NzcgNC42ODkxLDI0IDUuMDkzMSwyNCBMOC4wMDExLDI0IEw4LjAwMTEsMjIgTDUuNDQ4MSwyMiBDNS4xMDQxLDIyIDQuNzYyMSwyMS44NzcgNC41MTExLDIxLjY0MiBDLTAuMzUzOSwxNy4wODYgMi41ODYxLDExLjMzIDcuMTI0MSwxMS4wMiBMNy45NjExLDEwLjk2MyBMOC4zNTYxLDcuMjk4IEM4LjQwNzEsNi44MzIgOC42MTMxLDYuMzg2IDguOTU3MSw2LjA2NyBDMTUuNjAxMSwtMC4wOTQgMjMuMjc2MSwzLjkzNyAyMy45NTIxLDEwLjEzIEwyNC4wNDIxLDEwLjk2MyBMMjYuOTI2MSwxMS4xNiBDMjcuMjY5MSwxMS4xODQgMjcuNjAxMSwxMS4zMyAyNy44MzUxLDExLjU4MiBDMzIuMzc5MSwxNi40NiAyOS4wNTAxLDIyLjAwMyAyNC41MDExLDIyIEwyNC4wMDExLDIyIEwyNC4wMDExLDI0IEwyNy4yMTUxLDI0IEMyNy42NjExLDI0IDI4LjEwMzEsMjMuODQ4IDI4LjQzNzEsMjMuNTUyIEMzNC45MTQxLDE3LjgxNiAzMS42NjgxLDEwLjE2OCAyNS44MjMxLDkuMTI0IiBpZD0iRmlsbC0xIj48L3BhdGg+CiAgICAgICAgICAgIDwvZz4KICAgICAgICAgICAgPHBhdGggZD0iTTE1LjU3NCwyMi44MjU3IEMxMy45MTcsMjIuODI1NyAxMi41NzQsMjEuNDgyNyAxMi41NzQsMTkuODI1NyBDMTIuNTc0LDE4LjE2ODcgMTMuOTE3LDE2LjgyNTcgMTUuNTc0LDE2LjgyNTcgQzE3LjIzMSwxNi44MjU3IDE4LjU3NCwxOC4xNjg3IDE4LjU3NCwxOS44MjU3IEMxOC41NzIsMjEuNDgxNyAxNy4yMywyMi44MjM3IDE1LjU3NCwyMi44MjU3IEwxNS41NzQsMjIuODI1NyBaIE0yMy4wMDEsMjEuMDAxNyBMMjMuMDAxLDE5LjAwMTcgTDIwLjksMTkuMDAxNyBDMjAuNzcxLDE4LjM3NTcgMjAuNTIzLDE3Ljc4MDcgMjAuMTY4LDE3LjI0ODcgTDIxLjY1OCwxNS43NTk3IEwyMC4yNDQsMTQuMzQ1NyBMMTguNzU0LDE1LjgzNDcgQzE4LjIyMiwxNS40ODA3IDE3LjYyNywxNS4yMzE3IDE3LjAwMSwxNS4xMDI3IEwxNy4wMDEsMTMuMDAxNyBMMTUuMDAxLDEzLjAwMTcgTDE1LjAwMSwxNS4xMDI3IEMxNC4zNzUsMTUuMjMxNyAxMy43OCwxNS40ODA3IDEzLjI0OCwxNS44MzQ3IEwxMS43NTgsMTQuMzQ0NyBMMTAuMzQ1LDE1Ljc1ODcgTDExLjgzNCwxNy4yNDg3IEMxMS40OCwxNy43ODA3IDExLjIzMSwxOC4zNzU3IDExLjEwMiwxOS4wMDE3IEw5LjAwMSwxOS4wMDE3IEw5LjAwMSwyMS4wMDE3IEwxMS4xMDIsMjEuMDAxNyBDMTEuMjMxLDIxLjYyNzcgMTEuNDgsMjIuMjIyNyAxMS44MzQsMjIuNzU0NyBMMTAuMzQ0LDI0LjI0NDcgTDExLjc1OCwyNS42NTg3IEwxMy4yNDgsMjQuMTY4NyBDMTMuNzgsMjQuNTIzNyAxNC4zNzUsMjQuNzcxNyAxNS4wMDEsMjQuOTAwNyBMMTUuMDAxLDI3LjAwMTcgTDE3LjAwMSwyNy4wMDE3IEwxNy4wMDEsMjQuOTAwNyBDMTcuNjI3LDI0Ljc3MTcgMTguMjIyLDI0LjUyMzcgMTguNzU0LDI0LjE2ODcgTDIwLjI0NCwyNS42NTg3IEwyMS42NTgsMjQuMjQ0NyBMMjAuMTY4LDIyLjc1NDcgQzIwLjUyMywyMi4yMjI3IDIwLjc3MSwyMS42Mjc3IDIwLjksMjEuMDAxNyBMMjMuMDAxLDIxLjAwMTcgWiIgaWQ9IkZpbGwtNCI+PC9wYXRoPgogICAgICAgIDwvZz4KICAgIDwvZz4KPC9zdmc+;fontSize=12;" vertex="1" parent="eWvYWL_rQkgchVLTD9YQ-1">
          <mxGeometry x="20" y="6.65" width="25" height="19.71" as="geometry" />
        </mxCell>
        <mxCell id="1" value="Scheduler" parent="0" />
        <mxCell id="YfzeF5VBeFs40UhYf6Tz-31" value="" style="rounded=0;whiteSpace=wrap;html=1;dashed=1;" parent="1" vertex="1">
          <mxGeometry x="-1310" y="48.19" width="147" height="126.81" as="geometry" />
        </mxCell>
        <mxCell id="n03P8Iy27wCgzLKAYuvf-1" value="Tag Reading&amp;nbsp;&lt;br&gt;Thread" style="rounded=1;whiteSpace=wrap;html=1;absoluteArcSize=1;arcSize=14;strokeWidth=2;" parent="1" vertex="1">
          <mxGeometry x="-1560" y="70" width="110" height="90" as="geometry" />
        </mxCell>
        <mxCell id="n03P8Iy27wCgzLKAYuvf-2" value="Action thread" style="rounded=1;whiteSpace=wrap;html=1;absoluteArcSize=1;arcSize=14;strokeWidth=2;" parent="1" vertex="1">
          <mxGeometry x="-1560" y="320" width="110" height="90" as="geometry" />
        </mxCell>
        <mxCell id="n03P8Iy27wCgzLKAYuvf-3" value="Action&amp;nbsp;&lt;br&gt;List" style="shape=parallelogram;html=1;strokeWidth=2;perimeter=parallelogramPerimeter;whiteSpace=wrap;rounded=1;arcSize=12;size=0.23;" parent="1" vertex="1">
          <mxGeometry x="-1555" y="210" width="100" height="60" as="geometry" />
        </mxCell>
        <mxCell id="YfzeF5VBeFs40UhYf6Tz-9" value="VM Tag" style="rounded=1;whiteSpace=wrap;html=1;strokeColor=#000000;" parent="1" vertex="1">
          <mxGeometry x="-1300" y="64.94" width="55" height="26.25" as="geometry" />
        </mxCell>
        <mxCell id="YfzeF5VBeFs40UhYf6Tz-21" value="VM Tag" style="rounded=1;whiteSpace=wrap;html=1;strokeColor=#000000;" parent="1" vertex="1">
          <mxGeometry x="-1300" y="101.94" width="55" height="26.25" as="geometry" />
        </mxCell>
        <mxCell id="YfzeF5VBeFs40UhYf6Tz-22" value="VM Tag" style="rounded=1;whiteSpace=wrap;html=1;strokeColor=#000000;" parent="1" vertex="1">
          <mxGeometry x="-1300" y="138.69" width="55" height="26.25" as="geometry" />
        </mxCell>
        <mxCell id="YfzeF5VBeFs40UhYf6Tz-23" value="VM Tag" style="rounded=1;whiteSpace=wrap;html=1;strokeColor=#000000;" parent="1" vertex="1">
          <mxGeometry x="-1230" y="65.06" width="55" height="26.25" as="geometry" />
        </mxCell>
        <mxCell id="YfzeF5VBeFs40UhYf6Tz-24" value="VM Tag" style="rounded=1;whiteSpace=wrap;html=1;strokeColor=#000000;" parent="1" vertex="1">
          <mxGeometry x="-1230" y="102.06" width="55" height="26.25" as="geometry" />
        </mxCell>
        <mxCell id="YfzeF5VBeFs40UhYf6Tz-25" value="VM Tag" style="rounded=1;whiteSpace=wrap;html=1;strokeColor=#000000;" parent="1" vertex="1">
          <mxGeometry x="-1230" y="138.81" width="55" height="26.25" as="geometry" />
        </mxCell>
        <mxCell id="YfzeF5VBeFs40UhYf6Tz-26" value="" style="html=1;labelBackgroundColor=#ffffff;jettySize=auto;orthogonalLoop=1;strokeWidth=1;fontSize=14;endArrow=none;endFill=0;rounded=0;strokeColor=#B3B3B3;" parent="1" edge="1">
          <mxGeometry width="60" height="60" relative="1" as="geometry">
            <mxPoint x="-1160" y="116.93" as="sourcePoint" />
            <mxPoint x="-1030" y="186.93" as="targetPoint" />
          </mxGeometry>
        </mxCell>
        <mxCell id="YfzeF5VBeFs40UhYf6Tz-28" value="&lt;h1 style=&quot;text-align: center;&quot;&gt;&lt;font style=&quot;font-size: 12px;&quot;&gt;VM Tags&lt;/font&gt;&lt;/h1&gt;&lt;div style=&quot;&quot;&gt;ibm.manage.up - Schedule VM Start&lt;br&gt;&lt;/div&gt;&lt;div&gt;ibm.manage.down - Schedule VM Stop&lt;br&gt;&lt;/div&gt;&lt;div&gt;&lt;br&gt;&lt;/div&gt;&lt;div&gt;Schedule format follows the standard CRON format, eg -&amp;gt; https://crontab.guru&amp;nbsp;&lt;/div&gt;" style="text;html=1;strokeColor=none;fillColor=none;spacing=5;spacingTop=-20;whiteSpace=wrap;overflow=hidden;rounded=0;fontColor=#808080;" parent="1" vertex="1">
          <mxGeometry x="-1140" y="180" width="250" height="130" as="geometry" />
        </mxCell>
        <mxCell id="YfzeF5VBeFs40UhYf6Tz-29" value="" style="endArrow=classic;html=1;rounded=0;" parent="1" edge="1">
          <mxGeometry width="50" height="50" relative="1" as="geometry">
            <mxPoint x="-1320" y="110" as="sourcePoint" />
            <mxPoint x="-1440" y="110" as="targetPoint" />
          </mxGeometry>
        </mxCell>
        <mxCell id="YfzeF5VBeFs40UhYf6Tz-32" value="" style="endArrow=classic;html=1;rounded=0;entryX=0.5;entryY=0;entryDx=0;entryDy=0;exitX=0.5;exitY=1;exitDx=0;exitDy=0;" parent="1" source="n03P8Iy27wCgzLKAYuvf-1" target="n03P8Iy27wCgzLKAYuvf-3" edge="1">
          <mxGeometry width="50" height="50" relative="1" as="geometry">
            <mxPoint x="-1310" y="120" as="sourcePoint" />
            <mxPoint x="-1430" y="120" as="targetPoint" />
          </mxGeometry>
        </mxCell>
        <mxCell id="YfzeF5VBeFs40UhYf6Tz-33" value="" style="endArrow=classic;html=1;rounded=0;entryX=0.5;entryY=0;entryDx=0;entryDy=0;exitX=0.5;exitY=1;exitDx=0;exitDy=0;" parent="1" edge="1">
          <mxGeometry width="50" height="50" relative="1" as="geometry">
            <mxPoint x="-1505.42" y="270" as="sourcePoint" />
            <mxPoint x="-1505.42" y="320" as="targetPoint" />
          </mxGeometry>
        </mxCell>
        <mxCell id="YfzeF5VBeFs40UhYf6Tz-34" value="Stop/Start&lt;br&gt;VM" style="ellipse;whiteSpace=wrap;html=1;aspect=fixed;" parent="1" vertex="1">
          <mxGeometry x="-1290" y="325" width="80" height="80" as="geometry" />
        </mxCell>
        <mxCell id="YfzeF5VBeFs40UhYf6Tz-37" value="" style="endArrow=classic;html=1;rounded=0;exitX=1;exitY=0.5;exitDx=0;exitDy=0;entryX=0;entryY=0.5;entryDx=0;entryDy=0;" parent="1" source="n03P8Iy27wCgzLKAYuvf-2" target="YfzeF5VBeFs40UhYf6Tz-34" edge="1">
          <mxGeometry width="50" height="50" relative="1" as="geometry">
            <mxPoint x="-1310" y="250" as="sourcePoint" />
            <mxPoint x="-1430" y="250" as="targetPoint" />
          </mxGeometry>
        </mxCell>
      </root>
    </mxGraphModel>
  </diagram>
</mxfile>
